<svg id="Layer_1" data-name="Layer 1" xmlns="http://www.w3.org/2000/svg" viewBox="0 0 182.56 48.33"><defs><style>.cls-1{fill:#254e77;}.cls-2{fill:#b8d152;}</style></defs><title>logo</title><path class="cls-1" d="M45.74,44.89V26.35H58.49v2.19H48.06v5.67h9.27v2.2H48.06v6.28H58.49v2.2Z" transform="translate(-4.22 -3.29)"/><path class="cls-1" d="M60.5,44.89V26.35h2.32L72.09,41V26.35h2.32V44.89H72.09L62.82,30.31V44.89Z" transform="translate(-4.22 -3.29)"/><path class="cls-1" d="M77.58,44.89V26.35h5.8a7.69,7.69,0,0,1,6,2.53,9.67,9.67,0,0,1,2.28,6.74,9.7,9.7,0,0,1-2.28,6.74,7.69,7.69,0,0,1-6,2.53Zm2.32-2.07h3.48a5.43,5.43,0,0,0,4.36-2,8,8,0,0,0,1.65-5.26,7.81,7.81,0,0,0-1.65-5.22,5.4,5.4,0,0,0-4.36-2H79.9Z" transform="translate(-4.22 -3.29)"/><path class="cls-1" d="M94,44.89V26.35h12.75v2.19H96.31v5.67h9.27v2.2H96.31v6.28h10.43v2.2Z" transform="translate(-4.22 -3.29)"/><path class="cls-1" d="M107.38,44.89l6-18.54h3l6,18.54h-2.32l-1.86-5.55h-6.71l-1.86,5.55Zm4.85-7.63h5.37l-2.68-8Z" transform="translate(-4.22 -3.29)"/><path class="cls-1" d="M122.85,26.35h2.31l5.13,14.82,5.09-14.82h2.32l-6.28,18.54H129.1Z" transform="translate(-4.22 -3.29)"/><path class="cls-1" d="M138.58,35.62a10.41,10.41,0,0,1,2.29-7A7.66,7.66,0,0,1,146.94,26a7.56,7.56,0,0,1,6,2.62,10.35,10.35,0,0,1,2.29,7A10,10,0,0,1,153,42.51a7.6,7.6,0,0,1-6,2.59,7.7,7.7,0,0,1-6.07-2.59A10.07,10.07,0,0,1,138.58,35.62Zm2.32,0a8.36,8.36,0,0,0,1.65,5.4,5.77,5.77,0,0,0,8.75,0,8.36,8.36,0,0,0,1.65-5.4,8.48,8.48,0,0,0-1.65-5.49,5.64,5.64,0,0,0-8.75,0A8.48,8.48,0,0,0,140.9,35.62Z" transform="translate(-4.22 -3.29)"/><path class="cls-1" d="M157.59,44.89V26.35h8A6.26,6.26,0,0,1,170,27.84a5,5,0,0,1,1.65,3.94,5.07,5.07,0,0,1-.8,2.78,4.53,4.53,0,0,1-2.22,1.77A5.25,5.25,0,0,1,170.18,38a4.37,4.37,0,0,1,.61,2.22l.13,3.59a1.72,1.72,0,0,0,.33.83l.12.21h-2.31l-.07-.12a2.37,2.37,0,0,1-.39-1l-.12-3.48a2.6,2.6,0,0,0-1.19-2.19,4.39,4.39,0,0,0-2.63-.8h-4.75v7.63Zm2.32-9.7h5.67a3.94,3.94,0,0,0,2.71-.92,3.3,3.3,0,0,0,1-2.5,3.16,3.16,0,0,0-1-2.43,3.94,3.94,0,0,0-2.71-.92h-5.67Z" transform="translate(-4.22 -3.29)"/><path class="cls-1" d="M172.87,38.64h2.32a4.39,4.39,0,0,0,4.63,4.63,5.45,5.45,0,0,0,3.36-.94,3,3,0,0,0,1.28-2.53,2.57,2.57,0,0,0-1.5-2.29,10.49,10.49,0,0,0-3.14-1,10.41,10.41,0,0,1-4.48-1.8,4.55,4.55,0,0,1-2-3.75,4.4,4.4,0,0,1,1.76-3.63A7.55,7.55,0,0,1,179.82,26a6.74,6.74,0,0,1,4.73,1.62,5.53,5.53,0,0,1,1.77,4.3H184a4.9,4.9,0,0,0-1.43-2.81,4,4,0,0,0-2.75-1,5.29,5.29,0,0,0-3,.8A2.49,2.49,0,0,0,175.64,31,2.8,2.8,0,0,0,177,33.33a6.48,6.48,0,0,0,2.86,1.13A13.13,13.13,0,0,1,184.55,36a4,4,0,0,1,2.23,3.54,5.14,5.14,0,0,1-1.89,4.18,7.71,7.71,0,0,1-5.07,1.59,7,7,0,0,1-5.06-1.83A6.49,6.49,0,0,1,172.87,38.64Z" transform="translate(-4.22 -3.29)"/><path class="cls-1" d="M46.91,22.33a6.25,6.25,0,0,1-1.56-4.28,6.33,6.33,0,0,1,1.56-4.31,5,5,0,0,1,6.8-.8,4,4,0,0,1,1.54,2.57h-.78a3.16,3.16,0,0,0-1.3-2,4.13,4.13,0,0,0-2.52-.79,4.07,4.07,0,0,0-3.19,1.55,5.69,5.69,0,0,0-1.33,3.79,5.69,5.69,0,0,0,1.33,3.78,4,4,0,0,0,3.19,1.55,3.77,3.77,0,0,0,2.63-.93A3.59,3.59,0,0,0,54.47,20h.78a4.37,4.37,0,0,1-1.42,3,4.57,4.57,0,0,1-3.18,1.13A4.79,4.79,0,0,1,46.91,22.33Z" transform="translate(-4.22 -3.29)"/><path class="cls-1" d="M56.87,23.81V12.26h.78v5h7v-5h.78V23.81h-.78V18.05h-7v5.76Z" transform="translate(-4.22 -3.29)"/><path class="cls-1" d="M66.83,23.81l4.58-11.55h1L76.9,23.81H76l-1.49-3.7H69.18l-1.48,3.7Zm7.4-4.44-2.38-6.22-2.43,6.22Z" transform="translate(-4.22 -3.29)"/><path class="cls-1" d="M81.09,23.81V13h-4v-.76h8.73V13h-4V23.81Z" transform="translate(-4.22 -3.29)"/><path class="cls-1" d="M90,23.81V13H86v-.76h8.73V13h-4V23.81Z" transform="translate(-4.22 -3.29)"/><path class="cls-1" d="M95,23.81l4.58-11.55h1l4.52,11.55h-.9l-1.48-3.7H97.36l-1.48,3.7Zm7.41-4.44L100,13.15,97.6,19.37Z" transform="translate(-4.22 -3.29)"/><path class="cls-1" d="M106.48,23.81V12.26h1.07l7,10.6V12.26h.78V23.81h-1.07l-7-10.44V23.81Z" transform="translate(-4.22 -3.29)"/><path class="cls-1" d="M118.58,22.33a6.32,6.32,0,0,1-1.4-4.28,6.66,6.66,0,0,1,1.4-4.43,5.08,5.08,0,0,1,7.49,0,6.66,6.66,0,0,1,1.4,4.43,6.32,6.32,0,0,1-1.4,4.28,5.14,5.14,0,0,1-7.49,0Zm6.92-.52a5.65,5.65,0,0,0,1.19-3.76,6,6,0,0,0-1.19-3.88,4.18,4.18,0,0,0-6.35,0A6,6,0,0,0,118,18.05a5.65,5.65,0,0,0,1.19,3.76,4.26,4.26,0,0,0,6.35,0Z" transform="translate(-4.22 -3.29)"/><path class="cls-1" d="M130.12,22.33a6.27,6.27,0,0,1-1.4-4.28,6.61,6.61,0,0,1,1.4-4.43,5.06,5.06,0,0,1,7.48,0A6.61,6.61,0,0,1,139,18.05a6.27,6.27,0,0,1-1.41,4.28,5.13,5.13,0,0,1-7.48,0Zm6.92-.52a5.65,5.65,0,0,0,1.19-3.76A6,6,0,0,0,137,14.17a4.19,4.19,0,0,0-6.36,0,6,6,0,0,0-1.18,3.88,5.65,5.65,0,0,0,1.18,3.76,4.27,4.27,0,0,0,6.36,0Z" transform="translate(-4.22 -3.29)"/><path class="cls-1" d="M141.79,22.33a6.19,6.19,0,0,1-1.6-4.28,6.27,6.27,0,0,1,1.6-4.31A5.08,5.08,0,0,1,145.67,12a4.76,4.76,0,0,1,3,1,4,4,0,0,1,1.58,2.53h-.78a3.13,3.13,0,0,0-1.31-2,4.08,4.08,0,0,0-2.51-.79,4.26,4.26,0,0,0-3.31,1.55A5.54,5.54,0,0,0,141,18.05a5.54,5.54,0,0,0,1.39,3.78,4.23,4.23,0,0,0,3.31,1.55,3.73,3.73,0,0,0,2.83-1.26,4.29,4.29,0,0,0,1.17-3v-.29h-4v-.74h4.6v5.76h-.6V21.44a3.83,3.83,0,0,1-1.54,1.93,4.32,4.32,0,0,1-2.46.74A5.09,5.09,0,0,1,141.79,22.33Z" transform="translate(-4.22 -3.29)"/><path class="cls-1" d="M151.22,23.81l4.58-11.55h1l4.52,11.55h-.9l-1.48-3.7h-5.34l-1.48,3.7Zm7.41-4.44-2.38-6.22-2.43,6.22Z" transform="translate(-4.22 -3.29)"/><path class="cls-2" d="M38.46,19.72A15.9,15.9,0,0,0,33.55,8.09,17.2,17.2,0,0,0,23.36,3.32l0,2.36a15,15,0,0,1,8.58,4.09,13.56,13.56,0,0,1,4.19,9.92,13.29,13.29,0,0,1-1.32,5.71,17.24,17.24,0,0,0-11.56-6.29l0,2.36a14.87,14.87,0,0,1,10.28,6.09A14.65,14.65,0,0,1,23.1,33.47l0,2.37a17.25,17.25,0,0,0,10.26-4.59,16.59,16.59,0,0,0,1.41-1.5A13.5,13.5,0,0,1,36,35.48c-.06,7.14-5.76,13-13,13.78l0,2.36c8.56-.79,15.31-7.69,15.39-16.12a15.79,15.79,0,0,0-2.06-7.91A15.8,15.8,0,0,0,38.46,19.72Z" transform="translate(-4.22 -3.29)"/><path class="cls-2" d="M6.57,35.21A13.29,13.29,0,0,1,7.9,29.52,17.27,17.27,0,0,0,19.45,35.8l0-2.36A14.83,14.83,0,0,1,9.2,27.35a14.81,14.81,0,0,1,10.38-5.91l0-2.36A17.23,17.23,0,0,0,7.94,25.16,13.29,13.29,0,0,1,6.7,19.43a13.62,13.62,0,0,1,4.38-9.85,14.92,14.92,0,0,1,8.64-3.93l0-2.36A17.23,17.23,0,0,0,9.47,7.87,15.91,15.91,0,0,0,4.36,19.41a15.74,15.74,0,0,0,2.05,7.92,15.78,15.78,0,0,0-2.19,7.86c-.07,8.43,6.55,15.45,15.1,16.4l0-2.37C12.09,48.31,6.5,42.35,6.57,35.21Z" transform="translate(-4.22 -3.29)"/></svg>