<?xml version="1.0" encoding="utf-8"?>
<!-- Generator: Adobe Illustrator 23.1.1, SVG Export Plug-In . SVG Version: 6.00 Build 0)  -->
<svg version="1.1" id="Layer_1" xmlns="http://www.w3.org/2000/svg" xmlns:xlink="http://www.w3.org/1999/xlink" x="0px" y="0px"
	 width="665.24px" height="205.24px" viewBox="0 0 665.24 205.24" style="enable-background:new 0 0 665.24 205.24;"
	 xml:space="preserve">
<style type="text/css">
	.st0{fill:#254E77;}
	.st1{clip-path:url(#SVGID_2_);}
	.st2{fill:#FFFFFF;}
	.st3{fill:#B8D152;}
</style>
<g>
	<path class="st0" d="M161.27,160.45V97.19h43.49v7.49h-35.58v19.35h31.63v7.49h-31.63v21.43h35.58v7.49H161.27z"/>
	<path class="st0" d="M211.63,160.45V97.19h7.91l31.63,49.84V97.19h7.91v63.26h-7.91l-31.63-49.73v49.73H211.63z"/>
	<path class="st0" d="M269.89,160.45V97.19h19.77c8.6,0,15.47,2.88,20.6,8.64c5.2,5.76,7.8,13.42,7.8,22.99s-2.6,17.24-7.8,22.99
		c-5.13,5.76-12,8.64-20.6,8.64H269.89z M277.8,153.38h11.86c6.17,0,11.13-2.22,14.88-6.67c3.75-4.52,5.62-10.5,5.62-17.93
		c0-7.44-1.87-13.38-5.62-17.83c-3.75-4.45-8.71-6.67-14.88-6.67H277.8V153.38z"/>
	<path class="st0" d="M325.87,160.45V97.19h43.49v7.49h-35.58v19.35h31.63v7.49h-31.63v21.43h35.58v7.49H325.87z"/>
	<path class="st0" d="M371.54,160.45l20.6-63.26h10.2l20.6,63.26h-7.91l-6.35-18.94H385.8l-6.35,18.94H371.54z M388.09,134.44h18.31
		l-9.16-27.36L388.09,134.44z"/>
	<path class="st0" d="M424.29,97.19h7.91l17.48,50.56l17.37-50.56h7.91l-21.43,63.26h-7.91L424.29,97.19z"/>
	<path class="st0" d="M477.98,128.82c0-9.92,2.6-17.9,7.8-23.93c5.2-5.96,12.1-8.95,20.7-8.95c8.6,0,15.47,2.98,20.6,8.95
		c5.2,6.03,7.8,14.01,7.8,23.93c0,9.78-2.6,17.62-7.8,23.51c-5.13,5.9-12,8.84-20.6,8.84c-8.6,0-15.5-2.95-20.7-8.84
		C480.58,146.44,477.98,138.6,477.98,128.82z M485.88,128.82c0,7.63,1.87,13.77,5.62,18.42c3.75,4.58,8.74,6.87,14.98,6.87
		c6.17,0,11.13-2.29,14.88-6.87c3.75-4.65,5.62-10.78,5.62-18.42c0-7.84-1.87-14.08-5.62-18.73c-3.75-4.72-8.71-7.07-14.88-7.07
		c-6.24,0-11.24,2.36-14.98,7.07C487.76,114.74,485.88,120.98,485.88,128.82z"/>
	<path class="st0" d="M542.79,160.45V97.19h27.26c6.24,0,11.24,1.7,14.98,5.1c3.75,3.34,5.62,7.82,5.62,13.44
		c0,3.47-0.9,6.63-2.7,9.48c-1.94,2.85-4.47,4.86-7.6,6.04c2.29,1.59,4.09,3.53,5.41,5.82c1.39,2.42,2.08,4.95,2.08,7.58l0.42,12.26
		c0,0.69,0.38,1.63,1.15,2.8l0.42,0.73h-7.91l-0.21-0.42c-0.9-1.52-1.35-2.7-1.35-3.54l-0.42-11.86c0-3.05-1.35-5.55-4.06-7.49
		c-2.5-1.8-5.48-2.71-8.95-2.71H550.7v26.01H542.79z M550.7,127.36h19.35c3.81,0,6.9-1.05,9.26-3.15c2.29-2.17,3.43-5,3.43-8.51
		c0-3.43-1.14-6.19-3.43-8.29c-2.36-2.1-5.45-3.15-9.26-3.15H550.7V127.36z"/>
	<path class="st0" d="M594.92,139.12h7.91c0,4.79,1.46,8.6,4.37,11.44c2.84,2.91,6.66,4.37,11.45,4.37c4.79,0,8.6-1.07,11.45-3.23
		c2.91-2.15,4.37-5.03,4.37-8.64c0-3.26-1.7-5.86-5.1-7.8c-2.5-1.39-6.07-2.5-10.72-3.33c-6.17-1.11-11.27-3.16-15.29-6.14
		c-4.58-3.47-6.87-7.73-6.87-12.8c0-5.13,2.01-9.26,6.03-12.38c4.02-3.12,9.4-4.68,16.13-4.68c6.73,0,12.1,1.84,16.13,5.51
		c4.02,3.68,6.03,8.57,6.03,14.67h-7.91c-0.69-3.95-2.32-7.14-4.89-9.57c-2.64-2.36-5.76-3.54-9.36-3.54c-4.3,0-7.77,0.9-10.4,2.71
		c-2.57,1.8-3.85,4.23-3.85,7.28c0,3.19,1.49,5.86,4.47,8.01c2.5,1.87,5.76,3.16,9.78,3.85c6.87,1.18,12.24,2.98,16.13,5.41
		c5.06,3.05,7.6,7.07,7.6,12.07c0,5.97-2.15,10.72-6.45,14.25c-4.37,3.61-10.13,5.41-17.27,5.41c-7.15,0-12.9-2.08-17.27-6.24
		C597.07,151.61,594.92,146.06,594.92,139.12z"/>
</g>
<g>
	<g>
		<path class="st0" d="M165.27,83.51c-3.55-4.03-5.32-8.91-5.32-14.62c0-5.72,1.77-10.61,5.32-14.69c3.5-4.03,7.75-6.05,12.76-6.05
			c4.12,0,7.6,1.11,10.44,3.32c2.84,2.17,4.59,5.1,5.25,8.77h-2.66c-0.49-2.75-1.97-5.03-4.45-6.85c-2.44-1.82-5.3-2.73-8.57-2.73
			c-4.25,0-7.89,1.77-10.9,5.32c-3.01,3.59-4.52,7.89-4.52,12.9c0,5.01,1.51,9.31,4.52,12.9c3.01,3.55,6.65,5.32,10.9,5.32
			c3.63,0,6.62-1.06,8.97-3.19c2.39-2.13,3.74-4.96,4.05-8.51h2.66c-0.35,4.3-1.97,7.73-4.85,10.3c-2.84,2.57-6.45,3.85-10.83,3.85
			C173.03,89.55,168.77,87.54,165.27,83.51z"/>
		<path class="st0" d="M199.24,88.56V49.14h2.66v17.22h23.8V49.14h2.66v39.42h-2.66V68.88h-23.8v19.68H199.24z"/>
		<path class="st0" d="M233.21,88.56l15.62-39.42h3.32l15.42,39.42h-3.06l-5.05-12.63h-18.21l-5.05,12.63H233.21z M258.47,73.4
			l-8.11-21.2l-8.31,21.2H258.47z"/>
		<path class="st0" d="M281.86,88.56V51.73h-13.49v-2.59h29.78v2.59h-13.63v36.83H281.86z"/>
		<path class="st0" d="M312.17,88.56V51.73h-13.49v-2.59h29.78v2.59h-13.63v36.83H312.17z"/>
		<path class="st0" d="M329.32,88.56l15.62-39.42h3.32l15.42,39.42h-3.06l-5.05-12.63h-18.21l-5.05,12.63H329.32z M354.58,73.4
			l-8.11-21.2l-8.31,21.2H354.58z"/>
		<path class="st0" d="M368.47,88.56V49.14h3.66l23.8,36.16V49.14h2.66v39.42h-3.66l-23.8-35.63v35.63H368.47z"/>
		<path class="st0" d="M409.75,83.51c-3.19-3.68-4.79-8.55-4.79-14.62c0-6.29,1.6-11.32,4.79-15.09c3.19-3.77,7.44-5.65,12.76-5.65
			c5.32,0,9.57,1.88,12.76,5.65c3.19,3.77,4.79,8.8,4.79,15.09c0,6.07-1.6,10.95-4.79,14.62c-3.19,3.68-7.44,5.52-12.76,5.52
			C417.2,89.02,412.94,87.18,409.75,83.51z M433.35,81.71c2.7-3.19,4.05-7.47,4.05-12.83c0-5.49-1.35-9.9-4.05-13.23
			c-2.7-3.32-6.31-4.99-10.84-4.99c-4.52,0-8.13,1.66-10.83,4.99c-2.7,3.32-4.05,7.73-4.05,13.23c0,5.36,1.35,9.64,4.05,12.83
			c2.7,3.24,6.31,4.85,10.83,4.85C427.03,86.56,430.65,84.95,433.35,81.71z"/>
		<path class="st0" d="M449.1,83.51c-3.19-3.68-4.79-8.55-4.79-14.62c0-6.29,1.6-11.32,4.79-15.09c3.19-3.77,7.44-5.65,12.76-5.65
			c5.32,0,9.57,1.88,12.76,5.65c3.19,3.77,4.79,8.8,4.79,15.09c0,6.07-1.6,10.95-4.79,14.62c-3.19,3.68-7.44,5.52-12.76,5.52
			C456.55,89.02,452.29,87.18,449.1,83.51z M472.7,81.71c2.7-3.19,4.05-7.47,4.05-12.83c0-5.49-1.35-9.9-4.05-13.23
			c-2.7-3.32-6.31-4.99-10.84-4.99c-4.52,0-8.13,1.66-10.83,4.99c-2.7,3.32-4.05,7.73-4.05,13.23c0,5.36,1.35,9.64,4.05,12.83
			c2.7,3.24,6.31,4.85,10.83,4.85C466.38,86.56,470,84.95,472.7,81.71z"/>
		<path class="st0" d="M488.92,83.51c-3.63-4.03-5.45-8.91-5.45-14.62c0-5.72,1.82-10.61,5.45-14.69c3.68-4.03,8.09-6.05,13.23-6.05
			c3.9,0,7.33,1.15,10.3,3.46c2.97,2.26,4.76,5.14,5.38,8.64h-2.66c-0.49-2.75-1.97-5.03-4.45-6.85c-2.44-1.82-5.3-2.73-8.58-2.73
			c-4.43,0-8.2,1.77-11.3,5.32c-3.15,3.59-4.72,7.89-4.72,12.9c0,5.01,1.57,9.31,4.72,12.9c3.1,3.55,6.87,5.32,11.3,5.32
			c3.77,0,6.98-1.44,9.64-4.32c2.66-2.84,3.99-6.29,3.99-10.37v-1h-13.63v-2.53h15.69v19.68h-2.06v-8.11
			c-0.98,2.75-2.73,4.94-5.25,6.58c-2.48,1.68-5.27,2.53-8.38,2.53C497,89.55,492.6,87.54,488.92,83.51z"/>
		<path class="st0" d="M521.09,88.56l15.62-39.42h3.32l15.42,39.42h-3.06l-5.05-12.63h-18.21l-5.05,12.63H521.09z M546.35,73.4
			l-8.11-21.2l-8.31,21.2H546.35z"/>
	</g>
</g>
<g>
	<defs>
		
			<rect id="SVGID_1_" x="1063.47" y="408.42" transform="matrix(0.8348 -0.5505 0.5505 0.8348 -44.3214 678.1067)" width="89" height="9"/>
	</defs>
	<clipPath id="SVGID_2_">
		<use xlink:href="#SVGID_1_"  style="overflow:visible;"/>
	</clipPath>
	<g class="st1">
		<path class="st2" d="M1107.93,373.41v1c13,0,25.03,6.47,32.18,17.31c11.69,17.72,6.77,41.65-10.95,53.34
			c-6.31,4.16-13.63,6.36-21.16,6.36c-13,0-25.03-6.47-32.18-17.31c-11.69-17.72-6.77-41.65,10.95-53.34
			c6.31-4.16,13.63-6.36,21.16-6.36L1107.93,373.41 M1107.93,373.41c-7.46,0-15.01,2.11-21.71,6.53
			c-18.21,12.01-23.24,36.51-11.23,54.72c7.59,11.52,20.18,17.76,33.01,17.76c7.46,0,15.01-2.11,21.71-6.53
			c18.21-12.01,23.24-36.51,11.23-54.72C1133.35,379.66,1120.76,373.41,1107.93,373.41L1107.93,373.41z"/>
	</g>
</g>
<g>
	<path class="st3" d="M136.45,74.58c0.13-14.93-5.81-29.01-16.74-39.65c-9.43-9.17-21.59-14.83-34.75-16.27l-0.07,8.05
		c11.08,1.39,21.3,6.22,29.24,13.95c9.35,9.1,14.44,21.12,14.32,33.85c-0.06,6.83-1.63,13.43-4.54,19.46
		c-9.36-11.65-23.39-19.69-39.42-21.47l-0.07,8.06c14.6,1.85,27.21,9.67,35.06,20.79c-1.75,2.39-3.74,4.65-5.96,6.74
		c-8.08,7.58-18.37,12.22-29.46,13.42l-0.07,8.06c13.17-1.21,25.43-6.65,35.01-15.64c1.72-1.62,3.31-3.33,4.79-5.1
		c2.75,5.98,4.27,12.59,4.21,19.53c-0.22,24.35-19.64,44.32-44.42,47l-0.07,8.05c29.21-2.7,52.24-26.23,52.5-54.98
		c0.09-9.76-2.46-18.95-7-26.98C133.77,93.34,136.36,84.16,136.45,74.58z"/>
	<path class="st3" d="M27.66,127.45c0.06-6.94,1.7-13.51,4.55-19.44c9.36,11.64,23.38,19.67,39.4,21.44l0.07-8.06
		c-14.59-1.85-27.19-9.66-35.04-20.77c8.04-10.98,20.79-18.58,35.41-20.17l0.07-8.05c-16.05,1.49-30.23,9.28-39.79,20.77
		c-2.76-5.99-4.29-12.61-4.22-19.56c0.11-12.73,5.42-24.65,14.93-33.58c8.08-7.59,18.38-12.23,29.49-13.42l0.07-8.05
		c-13.2,1.21-25.45,6.63-35.04,15.64C26.45,44.63,20.25,58.6,20.12,73.53c-0.09,9.77,2.47,18.98,7.02,27.01
		c-4.68,7.94-7.39,17.08-7.48,26.83C19.4,156.13,42,180.07,71.15,183.29l0.07-8.06C46.49,172.11,27.44,151.79,27.66,127.45z"/>
</g>
</svg>
